<svg xmlns="http://www.w3.org/2000/svg" xmlns:xlink="http://www.w3.org/1999/xlink" width="500" zoomAndPan="magnify" viewBox="0 0 375 374.999991" height="500" preserveAspectRatio="xMidYMid meet" version="1.0"><defs><g/><clipPath id="81a5ad98c8"><path d="M 138.789062 113.1875 L 236.289062 113.1875 L 236.289062 181 L 138.789062 181 Z M 138.789062 113.1875 " clip-rule="nonzero"/></clipPath><clipPath id="58a1cd7b83"><path d="M 187 113.1875 L 192 113.1875 L 192 114 L 187 114 Z M 187 113.1875 " clip-rule="nonzero"/></clipPath><clipPath id="88c63bd3ca"><path d="M 150 126 L 223 126 L 223 182.9375 L 150 182.9375 Z M 150 126 " clip-rule="nonzero"/></clipPath><clipPath id="23e5071606"><path d="M 164 143 L 211 143 L 211 182.9375 L 164 182.9375 Z M 164 143 " clip-rule="nonzero"/></clipPath></defs><g clip-path="url(#81a5ad98c8)"><path fill="#ffdaef" d="M 236.269531 176.289062 C 236.101562 176.71875 235.980469 177.175781 235.757812 177.574219 C 235.097656 178.742188 233.777344 179.429688 232.613281 179.230469 C 231.132812 178.976562 230.128906 178.121094 229.78125 176.671875 C 229.445312 175.292969 229.230469 173.878906 229.023438 172.472656 C 228.554688 169.292969 227.941406 166.136719 227.351562 162.980469 C 226.675781 159.332031 225.890625 155.710938 224.886719 152.136719 C 223.414062 146.871094 221.421875 141.832031 218.683594 137.082031 C 217.089844 134.308594 215.203125 131.765625 213.015625 129.457031 C 210.9375 127.261719 208.5 125.507812 205.847656 124.050781 C 202.695312 122.316406 199.410156 120.949219 195.839844 120.390625 C 192.945312 119.941406 190.042969 119.75 187.097656 119.957031 C 184.539062 120.136719 182.011719 120.429688 179.539062 121.113281 C 175.527344 122.222656 171.75 123.898438 168.199219 126.070312 C 165.035156 128.003906 162.054688 130.175781 159.480469 132.863281 C 157.015625 135.4375 154.960938 138.324219 153.246094 141.441406 C 149.992188 147.347656 148.164062 153.75 146.820312 160.300781 C 146.304688 162.820312 146.074219 165.390625 145.855469 167.964844 C 145.585938 171.136719 145.605469 174.3125 145.582031 177.488281 C 145.574219 178.738281 145.117188 179.789062 143.964844 180.441406 C 142.710938 181.144531 141.496094 181.039062 140.347656 180.242188 C 139.648438 179.757812 139.222656 179.011719 139.109375 178.199219 C 138.808594 176 138.839844 173.78125 139.03125 171.566406 C 139.125 170.515625 139.128906 169.457031 139.1875 168.398438 C 139.507812 162.65625 140.601562 157.058594 142.160156 151.535156 C 143.375 147.230469 144.9375 143.0625 147.011719 139.101562 C 148.878906 135.527344 151.15625 132.238281 153.875 129.25 C 159.332031 123.253906 166.035156 119.144531 173.492188 116.160156 C 176.960938 114.769531 180.578125 113.957031 184.273438 113.503906 C 185.199219 113.390625 186.140625 113.386719 187.070312 113.332031 C 188.605469 113.332031 190.140625 113.332031 191.675781 113.332031 C 193.058594 113.292969 194.429688 113.480469 195.785156 113.675781 C 200.566406 114.355469 204.992188 116.042969 209.214844 118.375 C 214.566406 121.332031 218.855469 125.414062 222.273438 130.425781 C 226.644531 136.839844 229.546875 143.917969 231.535156 151.398438 C 232.738281 155.933594 233.632812 160.53125 234.476562 165.140625 C 234.921875 167.574219 235.28125 170.023438 235.691406 172.464844 C 235.867188 173.496094 236.078125 174.523438 236.269531 175.550781 C 236.269531 175.796875 236.269531 176.042969 236.269531 176.289062 Z M 236.269531 176.289062 " fill-opacity="1" fill-rule="evenodd"/></g><g clip-path="url(#58a1cd7b83)"><path fill="#feecdf" d="M 191.671875 113.1875 C 191.667969 113.234375 191.671875 113.285156 191.675781 113.332031 C 190.140625 113.332031 188.605469 113.332031 187.070312 113.332031 C 187.074219 113.285156 187.078125 113.234375 187.078125 113.1875 C 188.609375 113.1875 190.140625 113.1875 191.671875 113.1875 Z M 191.671875 113.1875 " fill-opacity="1" fill-rule="evenodd"/></g><g clip-path="url(#88c63bd3ca)"><path fill="#d3e8ca" d="M 189.503906 133.585938 C 182.667969 133.824219 176.628906 136.136719 171.421875 140.605469 C 167.496094 143.976562 165.101562 148.363281 163.089844 153.023438 C 160.925781 158.03125 159.472656 163.238281 158.679688 168.617188 C 158.148438 172.195312 157.667969 175.789062 157.585938 179.414062 C 157.539062 181.375 156.085938 182.9375 154.300781 182.929688 C 152.488281 182.925781 151.023438 181.433594 150.9375 179.476562 C 150.867188 177.867188 151.089844 176.273438 151.257812 174.683594 C 151.558594 171.871094 151.894531 169.0625 152.367188 166.269531 C 153.289062 160.828125 154.789062 155.566406 157 150.503906 C 158.480469 147.109375 160.054688 143.769531 162.304688 140.789062 C 167.550781 133.824219 174.566406 129.660156 182.976562 127.683594 C 189.71875 126.101562 196.183594 127.042969 202.324219 130.035156 C 207.132812 132.378906 210.832031 136.027344 213.726562 140.53125 C 216.824219 145.347656 218.75 150.617188 219.972656 156.167969 C 220.953125 160.617188 221.722656 165.101562 222.214844 169.632812 C 222.519531 172.445312 222.875 175.257812 222.929688 178.089844 C 222.960938 179.742188 221.753906 181.121094 220.238281 181.332031 C 218.535156 181.566406 217.109375 180.664062 216.589844 179.003906 C 216.398438 178.390625 216.320312 177.753906 216.273438 177.113281 C 215.734375 169.789062 214.792969 162.519531 212.988281 155.390625 C 211.675781 150.214844 209.550781 145.398438 206.085938 141.289062 C 203.992188 138.796875 201.492188 136.738281 198.417969 135.515625 C 195.5625 134.378906 192.660156 133.441406 189.503906 133.585938 Z M 189.503906 133.585938 " fill-opacity="1" fill-rule="evenodd"/></g><g clip-path="url(#23e5071606)"><path fill="#cbdcef" d="M 190.367188 143.820312 C 194.210938 143.808594 197.53125 145.113281 200.4375 147.625 C 205.320312 151.839844 207.910156 157.320312 209.296875 163.472656 C 209.863281 166 210.09375 168.574219 210.214844 171.160156 C 210.3125 173.296875 210.476562 175.433594 210.617188 177.570312 C 210.703125 178.835938 210.464844 180 209.488281 180.878906 C 207.75 182.449219 205.03125 181.703125 204.253906 179.464844 C 203.828125 178.230469 203.914062 176.933594 203.835938 175.660156 C 203.59375 171.558594 203.566406 167.433594 202.484375 163.425781 C 201.46875 159.652344 199.808594 156.226562 197.015625 153.425781 C 195.289062 151.699219 193.308594 150.476562 190.785156 150.417969 C 189.226562 150.382812 187.707031 150.703125 186.203125 151.101562 C 182.777344 152.015625 179.691406 153.523438 177.238281 156.148438 C 175.503906 158.003906 174.46875 160.285156 173.511719 162.578125 C 172.054688 166.082031 171.40625 169.796875 170.917969 173.539062 C 170.671875 175.449219 170.640625 177.371094 170.628906 179.292969 C 170.617188 180.691406 169.972656 181.761719 168.691406 182.367188 C 167.476562 182.9375 166.320312 182.726562 165.292969 181.902344 C 164.128906 180.96875 164 179.613281 164 178.273438 C 164.007812 174.765625 164.46875 171.308594 165.128906 167.867188 C 166.046875 163.09375 167.660156 158.59375 170.234375 154.476562 C 172.859375 150.289062 176.679688 147.53125 181.246094 145.78125 C 184.175781 144.65625 187.191406 143.839844 190.367188 143.820312 Z M 190.367188 143.820312 " fill-opacity="1" fill-rule="evenodd"/></g><path stroke-linecap="round" transform="matrix(0.75, 0, 0, 0.75, 37.500002, 208.986476)" fill="none" stroke-linejoin="miter" d="M 1.999997 2.002407 L 26.999999 2.002407 " stroke="#d3e8ca" stroke-width="4" stroke-opacity="1" stroke-miterlimit="4"/><path stroke-linecap="round" transform="matrix(0.75, 0, 0, 0.75, 315.74846, 208.986476)" fill="none" stroke-linejoin="miter" d="M 2.002054 2.002407 L 27.002055 2.002407 " stroke="#d3e8ca" stroke-width="4" stroke-opacity="1" stroke-miterlimit="4"/><path stroke-linecap="round" transform="matrix(0, 0.755581, -0.75, 0, 40.497599, 208.988878)" fill="none" stroke-linejoin="miter" d="M 1.999947 2.002008 L 52.60257 2.002008 " stroke="#d3e8ca" stroke-width="4" stroke-opacity="1" stroke-miterlimit="4"/><path stroke-linecap="round" transform="matrix(0.752405, 0, 0, 0.75, 37.500002, 247.686605)" fill="none" stroke-linejoin="miter" d="M 1.998797 2.001193 L 129.589718 2.001193 " stroke="#d3e8ca" stroke-width="4" stroke-opacity="1" stroke-miterlimit="4"/><path stroke-linecap="round" transform="matrix(0.752405, 0, 0, 0.75, 238.807153, 247.686605)" fill="none" stroke-linejoin="miter" d="M 2.000715 2.001193 L 129.591636 2.001193 " stroke="#d3e8ca" stroke-width="4" stroke-opacity="1" stroke-miterlimit="4"/><path stroke-linecap="round" transform="matrix(0, 0.755581, -0.75, 0, 338.24758, 208.988878)" fill="none" stroke-linejoin="miter" d="M 1.999947 2.001982 L 52.60257 2.001982 " stroke="#d3e8ca" stroke-width="4" stroke-opacity="1" stroke-miterlimit="4"/><g fill="#ffdaef" fill-opacity="1"><g transform="translate(142.722711, 254.061591)"><g><path d="M 9.816406 -1.300781 C 9.816406 -1.980469 9.15625 -2.539062 8.417969 -2.539062 L 4.058594 -2.539062 L 4.058594 -5.796875 L 7.839844 -5.796875 C 8.617188 -5.796875 9.21875 -6.359375 9.21875 -7.078125 C 9.21875 -7.796875 8.539062 -8.339844 7.839844 -8.339844 L 4.058594 -8.339844 L 4.058594 -11.558594 L 8.21875 -11.558594 C 8.976562 -11.558594 9.617188 -12.078125 9.617188 -12.796875 C 9.617188 -13.496094 8.976562 -14.097656 8.21875 -14.097656 L 2.800781 -14.097656 C 1.917969 -14.097656 1.257812 -13.375 1.257812 -12.675781 L 1.257812 -1.417969 C 1.257812 -0.339844 2.140625 0 3.121094 0 L 8.417969 0 C 9.175781 0 9.816406 -0.578125 9.816406 -1.300781 Z M 9.816406 -1.300781 "/></g></g></g><g fill="#ffdaef" fill-opacity="1"><g transform="translate(154.298664, 254.061591)"><g><path d="M 7 -4.078125 C 7 -2.980469 6.296875 -2.359375 4.917969 -2.359375 C 4.058594 -2.359375 3.417969 -2.597656 2.9375 -2.757812 C 2.558594 -2.898438 2.238281 -3 1.941406 -3 C 1.199219 -3 0.621094 -2.378906 0.621094 -1.738281 C 0.621094 -0.339844 3.417969 0.179688 4.898438 0.179688 C 7.757812 0.179688 9.878906 -1.417969 9.878906 -4.199219 C 9.878906 -7.039062 7.738281 -7.71875 5.777344 -8.339844 C 5.339844 -8.457031 4.859375 -8.617188 4.339844 -8.878906 C 4 -9.039062 3.5 -9.335938 3.5 -10.21875 C 3.5 -11.398438 4.417969 -11.738281 5.398438 -11.738281 C 6.097656 -11.738281 6.539062 -11.578125 6.917969 -11.4375 C 7.257812 -11.335938 7.539062 -11.21875 7.898438 -11.21875 C 8.777344 -11.21875 9.296875 -11.816406 9.296875 -12.476562 C 9.296875 -13.976562 6.457031 -14.277344 5.277344 -14.277344 C 2.4375 -14.277344 0.640625 -12.71875 0.640625 -10.136719 C 0.640625 -7.238281 2.757812 -6.578125 4.71875 -5.976562 C 5.257812 -5.796875 5.757812 -5.617188 6.179688 -5.4375 C 6.539062 -5.277344 7 -4.980469 7 -4.078125 Z M 7 -4.078125 "/></g></g></g><g fill="#ffdaef" fill-opacity="1"><g transform="translate(166.11452, 254.061591)"><g><path d="M 3.820312 -1.101562 C 3.820312 -0.417969 4.4375 0.179688 5.21875 0.179688 C 5.976562 0.179688 6.617188 -0.417969 6.617188 -1.101562 L 6.617188 -11.558594 L 8.738281 -11.558594 C 9.496094 -11.558594 10.15625 -12.136719 10.15625 -12.816406 C 10.15625 -13.535156 9.457031 -14.097656 8.738281 -14.097656 L 1.699219 -14.097656 C 0.917969 -14.097656 0.300781 -13.375 0.300781 -12.816406 C 0.300781 -12.136719 0.898438 -11.558594 1.699219 -11.558594 L 3.820312 -11.558594 Z M 3.820312 -1.101562 "/></g></g></g><g fill="#ffdaef" fill-opacity="1"><g transform="translate(177.870398, 254.061591)"><g/></g></g><g fill="#ffdaef" fill-opacity="1"><g transform="translate(185.168035, 254.061591)"><g><path d="M 5.21875 -1.121094 C 5.21875 -0.441406 5.839844 0.160156 6.617188 0.160156 C 7.378906 0.160156 8.019531 -0.441406 8.019531 -1.121094 L 8.019531 -12.9375 C 8.019531 -13.695312 7.378906 -14.277344 6.539062 -14.277344 C 6.257812 -14.277344 6.039062 -14.214844 5.757812 -14.054688 L 1.800781 -11.738281 C 1.417969 -11.515625 1.179688 -11.136719 1.179688 -10.617188 C 1.179688 -9.757812 1.859375 -9.457031 2.460938 -9.457031 C 2.917969 -9.457031 3.257812 -9.636719 3.640625 -9.878906 L 5.21875 -10.835938 Z M 5.21875 -1.121094 "/></g></g></g><g fill="#ffdaef" fill-opacity="1"><g transform="translate(197.263778, 254.061591)"><g><path d="M 4.917969 -2.238281 C 3.980469 -2.257812 3.398438 -2.621094 2.738281 -2.621094 C 1.898438 -2.621094 1.417969 -2 1.5 -1.378906 C 1.660156 0.0195312 4.339844 0.179688 5.160156 0.179688 C 8.558594 0.179688 10.175781 -2.539062 10.175781 -7.398438 C 10.175781 -11.378906 9.097656 -14.277344 5.398438 -14.277344 C 2.179688 -14.277344 0.621094 -12.097656 0.621094 -9.496094 C 0.621094 -6.457031 2.71875 -4.9375 5.160156 -4.9375 C 5.898438 -4.9375 6.558594 -5.078125 7.316406 -5.539062 C 7.179688 -3.660156 6.816406 -2.199219 4.917969 -2.238281 Z M 7.378906 -8.117188 C 6.917969 -7.699219 6.136719 -7.4375 5.359375 -7.4375 C 4.140625 -7.4375 3.398438 -8.097656 3.398438 -9.519531 C 3.398438 -10.675781 3.878906 -11.738281 5.296875 -11.738281 C 7.019531 -11.738281 7.378906 -10.117188 7.378906 -8.359375 Z M 7.378906 -8.117188 "/></g></g></g><g fill="#ffdaef" fill-opacity="1"><g transform="translate(209.359524, 254.061591)"><g><path d="M 5.21875 -1.121094 C 5.21875 -0.441406 5.839844 0.160156 6.617188 0.160156 C 7.378906 0.160156 8.019531 -0.441406 8.019531 -1.121094 L 8.019531 -12.9375 C 8.019531 -13.695312 7.378906 -14.277344 6.539062 -14.277344 C 6.257812 -14.277344 6.039062 -14.214844 5.757812 -14.054688 L 1.800781 -11.738281 C 1.417969 -11.515625 1.179688 -11.136719 1.179688 -10.617188 C 1.179688 -9.757812 1.859375 -9.457031 2.460938 -9.457031 C 2.917969 -9.457031 3.257812 -9.636719 3.640625 -9.878906 L 5.21875 -10.835938 Z M 5.21875 -1.121094 "/></g></g></g><g fill="#ffdaef" fill-opacity="1"><g transform="translate(221.455265, 254.061591)"><g><path d="M 10.417969 -4.140625 C 10.417969 -5.71875 9.578125 -6.816406 8.417969 -7.578125 C 9.378906 -8.316406 9.898438 -9.277344 9.898438 -10.4375 C 9.898438 -12.695312 7.917969 -14.257812 5.378906 -14.257812 C 2.917969 -14.257812 0.859375 -12.796875 0.859375 -10.355469 C 0.859375 -9.097656 1.417969 -8.136719 2.339844 -7.4375 C 1.199219 -6.699219 0.359375 -5.597656 0.359375 -4.058594 C 0.359375 -1.597656 2.5 0.179688 5.398438 0.179688 C 8.359375 0.179688 10.417969 -1.660156 10.417969 -4.140625 Z M 7.160156 -10.378906 C 7.160156 -9.519531 6.417969 -8.878906 5.4375 -8.65625 C 4.457031 -8.859375 3.617188 -9.457031 3.617188 -10.378906 C 3.617188 -11.238281 4.398438 -11.855469 5.398438 -11.855469 C 6.378906 -11.855469 7.160156 -11.238281 7.160156 -10.378906 Z M 7.636719 -4.140625 C 7.636719 -3.097656 6.699219 -2.257812 5.398438 -2.257812 C 4.117188 -2.257812 3.140625 -3.058594 3.140625 -4.140625 C 3.140625 -5.21875 4.097656 -5.957031 5.339844 -6.21875 C 6.558594 -5.957031 7.636719 -5.257812 7.636719 -4.140625 Z M 7.636719 -4.140625 "/></g></g></g><g fill="#cbdcef" fill-opacity="1"><g transform="translate(66.412057, 217.611447)"><g><path d="M 5.75 0.03125 C 5.5 0.03125 5.316406 -0.132812 5.203125 -0.46875 C 4.941406 -1.039062 4.8125 -2.082031 4.8125 -3.59375 C 4.8125 -5.039062 4.835938 -6.710938 4.890625 -8.609375 C 4.898438 -9.210938 4.90625 -10.144531 4.90625 -11.40625 L 4.84375 -11.515625 L 1.953125 -11.515625 C 1.722656 -11.515625 1.539062 -11.640625 1.40625 -11.890625 C 1.28125 -12.140625 1.1875 -12.492188 1.125 -12.953125 C 1.03125 -13.472656 0.984375 -14.21875 0.984375 -15.1875 L 0.984375 -15.546875 C 0.984375 -15.722656 0.992188 -15.863281 1.015625 -15.96875 L 1.015625 -16.59375 C 1.015625 -16.695312 1.066406 -16.785156 1.171875 -16.859375 C 1.273438 -16.941406 1.394531 -17 1.53125 -17.03125 C 1.707031 -17.082031 1.96875 -17.109375 2.3125 -17.109375 L 4.296875 -17.109375 C 4.722656 -17.109375 5.050781 -17.097656 5.28125 -17.078125 L 6.234375 -17.0625 L 15.59375 -17.0625 C 16.269531 -17.0625 16.710938 -17.050781 16.921875 -17.03125 C 17.015625 -17.007812 17.140625 -16.988281 17.296875 -16.96875 C 17.453125 -16.957031 17.5625 -16.925781 17.625 -16.875 C 17.75 -16.820312 17.820312 -16.753906 17.84375 -16.671875 C 17.875 -16.597656 17.890625 -16.484375 17.890625 -16.328125 L 17.890625 -12.03125 C 17.890625 -11.84375 17.8125 -11.710938 17.65625 -11.640625 C 17.550781 -11.609375 17.410156 -11.59375 17.234375 -11.59375 L 15.546875 -11.59375 C 15.148438 -11.59375 14.847656 -11.609375 14.640625 -11.640625 L 13.859375 -11.640625 C 13.703125 -11.640625 13.613281 -11.609375 13.59375 -11.546875 C 13.59375 -11.523438 13.582031 -11.5 13.5625 -11.46875 C 13.550781 -11.445312 13.546875 -11.421875 13.546875 -11.390625 L 13.546875 -10.109375 C 13.546875 -9.847656 13.535156 -9.648438 13.515625 -9.515625 C 13.515625 -9.015625 13.484375 -7.914062 13.421875 -6.21875 L 13.359375 -5.4375 C 13.328125 -4.707031 13.296875 -4.175781 13.265625 -3.84375 L 13.265625 -1.375 C 13.265625 -0.789062 13.140625 -0.421875 12.890625 -0.265625 C 12.671875 -0.171875 12.515625 -0.117188 12.421875 -0.109375 L 11.78125 -0.078125 C 11.101562 -0.078125 10.625 -0.0625 10.34375 -0.03125 L 7.625 0 C 7.269531 0.0195312 6.644531 0.03125 5.75 0.03125 Z M 5.75 0.03125 "/></g></g></g><g fill="#cbdcef" fill-opacity="1"><g transform="translate(86.764482, 217.611447)"><g><path d="M 11.390625 0.625 C 9.328125 0.625 7.695312 0.457031 6.5 0.125 C 4.832031 -0.300781 3.566406 -1.101562 2.703125 -2.28125 C 1.703125 -3.6875 1.203125 -5.640625 1.203125 -8.140625 C 1.203125 -9.921875 1.398438 -11.4375 1.796875 -12.6875 C 2.191406 -13.9375 2.804688 -14.957031 3.640625 -15.75 C 4.472656 -16.550781 5.539062 -17.132812 6.84375 -17.5 C 8.15625 -17.875 9.753906 -18.0625 11.640625 -18.0625 C 13.117188 -18.0625 14.507812 -17.835938 15.8125 -17.390625 C 17.40625 -16.816406 18.644531 -15.941406 19.53125 -14.765625 C 20.613281 -13.359375 21.15625 -11.515625 21.15625 -9.234375 C 21.15625 -6.554688 20.757812 -4.472656 19.96875 -2.984375 C 19.164062 -1.617188 18.015625 -0.648438 16.515625 -0.078125 C 15.273438 0.390625 13.566406 0.625 11.390625 0.625 Z M 11.1875 -1.890625 C 11.382812 -1.890625 11.546875 -2.019531 11.671875 -2.28125 C 11.929688 -2.84375 12.113281 -3.71875 12.21875 -4.90625 C 12.320312 -6 12.375 -7.035156 12.375 -8.015625 L 12.375 -9.703125 C 12.375 -10.460938 12.320312 -11.390625 12.21875 -12.484375 C 12.113281 -13.660156 11.929688 -14.550781 11.671875 -15.15625 C 11.535156 -15.445312 11.375 -15.59375 11.1875 -15.59375 C 10.800781 -15.59375 10.519531 -15.234375 10.34375 -14.515625 C 10.175781 -13.503906 10.09375 -12.59375 10.09375 -11.78125 C 10.039062 -11.082031 10.015625 -10 10.015625 -8.53125 C 10.015625 -7.539062 10.039062 -6.722656 10.09375 -6.078125 C 10.09375 -5.265625 10.175781 -4.320312 10.34375 -3.25 C 10.519531 -2.34375 10.800781 -1.890625 11.1875 -1.890625 Z M 11.1875 -1.890625 "/></g></g></g><g fill="#cbdcef" fill-opacity="1"><g transform="translate(110.651849, 217.611447)"><g><path d="M 11.90625 2.3125 C 11.90625 2.3125 11.890625 2.3125 11.859375 2.3125 C 11.835938 2.3125 11.816406 2.320312 11.796875 2.34375 L 11.71875 2.359375 C 11.664062 2.359375 11.640625 2.34375 11.640625 2.3125 C 11.578125 2.28125 11.535156 2.226562 11.515625 2.15625 C 10.910156 2.050781 10.519531 1.960938 10.34375 1.890625 L 9.4375 1.640625 L 9.3125 1.640625 C 9.21875 1.640625 9.144531 1.625 9.09375 1.59375 C 8.9375 1.59375 8.804688 1.570312 8.703125 1.53125 C 8.566406 1.519531 8.34375 1.460938 8.03125 1.359375 C 7.71875 1.253906 7.492188 1.175781 7.359375 1.125 C 7.078125 1.03125 6.675781 0.878906 6.15625 0.671875 C 5.914062 0.566406 5.734375 0.5 5.609375 0.46875 L 5.015625 0.109375 C 4.878906 0.00390625 4.8125 -0.0976562 4.8125 -0.203125 C 4.8125 -0.535156 4.890625 -0.882812 5.046875 -1.25 C 5.097656 -1.375 5.171875 -1.519531 5.265625 -1.6875 C 5.359375 -1.863281 5.445312 -2.0625 5.53125 -2.28125 C 5.570312 -2.382812 5.671875 -2.539062 5.828125 -2.75 C 6.242188 -3.445312 6.46875 -3.832031 6.5 -3.90625 C 6.570312 -4.09375 6.609375 -4.265625 6.609375 -4.421875 C 6.609375 -4.679688 6.46875 -4.945312 6.1875 -5.21875 C 5.925781 -5.476562 5.796875 -5.734375 5.796875 -5.984375 C 5.710938 -5.984375 5.671875 -5.972656 5.671875 -5.953125 L 5.59375 -5.953125 C 5.550781 -5.984375 5.53125 -6.019531 5.53125 -6.0625 C 4.976562 -6.75 4.414062 -7.585938 3.84375 -8.578125 C 3.113281 -9.722656 2.523438 -10.765625 2.078125 -11.703125 C 1.941406 -11.910156 1.78125 -12.28125 1.59375 -12.8125 C 1.363281 -13.28125 1.171875 -13.757812 1.015625 -14.25 C 0.828125 -14.78125 0.734375 -15.125 0.734375 -15.28125 C 0.734375 -15.457031 0.921875 -15.6875 1.296875 -15.96875 C 1.453125 -16.070312 1.632812 -16.175781 1.84375 -16.28125 C 2.050781 -16.382812 2.207031 -16.460938 2.3125 -16.515625 C 2.394531 -16.523438 2.757812 -16.617188 3.40625 -16.796875 L 3.765625 -16.921875 C 3.835938 -16.972656 3.914062 -17 4 -17 C 4.101562 -17 4.269531 -17.035156 4.5 -17.109375 C 5 -17.210938 5.289062 -17.28125 5.375 -17.3125 L 6.3125 -17.53125 C 6.832031 -17.695312 7.140625 -17.789062 7.234375 -17.8125 L 7.28125 -17.84375 L 7.40625 -17.84375 C 7.769531 -17.84375 8.015625 -17.753906 8.140625 -17.578125 C 8.242188 -17.472656 8.414062 -17.226562 8.65625 -16.84375 C 8.6875 -16.738281 8.75 -16.617188 8.84375 -16.484375 C 8.945312 -16.347656 9.015625 -16.257812 9.046875 -16.21875 L 9.25 -15.9375 L 9.4375 -15.734375 C 9.507812 -15.640625 9.578125 -15.53125 9.640625 -15.40625 C 9.710938 -15.289062 9.789062 -15.164062 9.875 -15.03125 C 10.332031 -14.226562 10.679688 -13.664062 10.921875 -13.34375 C 11.078125 -13.113281 11.207031 -13 11.3125 -13 C 11.363281 -13 11.445312 -13.09375 11.5625 -13.28125 C 11.71875 -13.53125 12.003906 -14.085938 12.421875 -14.953125 C 12.648438 -15.503906 12.921875 -16.132812 13.234375 -16.84375 C 13.390625 -17.15625 13.476562 -17.347656 13.5 -17.421875 C 13.5625 -17.734375 13.640625 -17.929688 13.734375 -18.015625 C 13.816406 -18.148438 13.972656 -18.21875 14.203125 -18.21875 C 14.753906 -18.21875 15.476562 -18.109375 16.375 -17.890625 C 17.257812 -17.628906 18.109375 -17.289062 18.921875 -16.875 C 19.753906 -16.425781 20.320312 -16.007812 20.625 -15.625 C 20.625 -15.15625 20.507812 -14.722656 20.28125 -14.328125 L 17.890625 -9.046875 L 15.546875 -3.75 L 15.4375 -3.71875 C 15.425781 -3.71875 15.398438 -3.703125 15.359375 -3.671875 C 14.222656 -1.429688 13.175781 0.578125 12.21875 2.359375 C 12.1875 2.429688 12.082031 2.46875 11.90625 2.46875 Z M 11.90625 2.3125 "/></g></g></g><g fill="#cbdcef" fill-opacity="1"><g transform="translate(133.499533, 217.611447)"><g><path d="M 8.734375 0.625 C 7.503906 0.625 6.265625 0.484375 5.015625 0.203125 C 3.785156 -0.0859375 2.769531 -0.484375 1.96875 -0.984375 C 1.757812 -1.609375 1.601562 -2.234375 1.5 -2.859375 C 1.40625 -3.484375 1.28125 -4.375 1.125 -5.53125 L 1.125 -5.609375 C 1.15625 -5.816406 1.265625 -5.972656 1.453125 -6.078125 C 2.109375 -5.679688 2.738281 -5.382812 3.34375 -5.1875 C 3.957031 -4.988281 4.628906 -4.890625 5.359375 -4.890625 L 5.984375 -4.890625 L 6.390625 -4.859375 C 6.796875 -4.859375 7.207031 -4.921875 7.625 -5.046875 C 7.84375 -5.128906 8 -5.289062 8.09375 -5.53125 L 6.703125 -6.21875 C 5.648438 -6.71875 4.695312 -7.253906 3.84375 -7.828125 C 2.957031 -8.460938 2.328125 -9.273438 1.953125 -10.265625 C 1.753906 -10.804688 1.65625 -11.394531 1.65625 -12.03125 C 1.65625 -13.59375 2.132812 -14.851562 3.09375 -15.8125 C 3.925781 -16.65625 5.050781 -17.257812 6.46875 -17.625 C 7.695312 -17.914062 9.050781 -18.0625 10.53125 -18.0625 C 11.394531 -18.0625 12.59375 -17.96875 14.125 -17.78125 C 14.28125 -17.75 14.492188 -17.71875 14.765625 -17.6875 L 15.546875 -17.53125 C 16.140625 -17.425781 16.570312 -17.375 16.84375 -17.375 C 16.863281 -17.375 16.894531 -17.347656 16.9375 -17.296875 C 16.976562 -17.242188 17.019531 -17.195312 17.0625 -17.15625 C 17.125 -17.039062 17.191406 -16.984375 17.265625 -16.984375 L 17.3125 -16.984375 L 17.375 -16.4375 C 17.375 -16.175781 17.398438 -15.894531 17.453125 -15.59375 C 17.503906 -15.164062 17.53125 -14.703125 17.53125 -14.203125 C 17.53125 -13.765625 17.503906 -13.453125 17.453125 -13.265625 C 17.359375 -12.910156 17.203125 -12.65625 16.984375 -12.5 L 14.5625 -12.8125 L 13.9375 -12.8125 C 13.34375 -12.8125 12.664062 -12.753906 11.90625 -12.640625 L 11.046875 -12.453125 C 10.835938 -12.421875 10.734375 -12.382812 10.734375 -12.34375 C 10.734375 -11.925781 11.003906 -11.539062 11.546875 -11.1875 C 11.804688 -11.039062 12.066406 -10.921875 12.328125 -10.828125 C 12.585938 -10.734375 12.75 -10.671875 12.8125 -10.640625 C 14.09375 -10.273438 15.203125 -9.640625 16.140625 -8.734375 C 16.578125 -8.316406 16.914062 -7.875 17.15625 -7.40625 C 17.40625 -6.9375 17.53125 -6.488281 17.53125 -6.0625 C 17.53125 -5.800781 17.492188 -5.519531 17.421875 -5.21875 C 17.296875 -3.925781 16.800781 -2.800781 15.9375 -1.84375 C 15.082031 -1 14.015625 -0.375 12.734375 0.03125 C 11.628906 0.425781 10.296875 0.625 8.734375 0.625 Z M 8.734375 0.625 "/></g></g></g><g fill="#cbdcef" fill-opacity="1"><g transform="translate(153.799978, 217.611447)"><g/></g></g><g fill="#cbdcef" fill-opacity="1"><g transform="translate(162.066022, 217.611447)"><g><path d="M 1.890625 0.03125 C 1.671875 0.03125 1.519531 -0.144531 1.4375 -0.5 C 1.414062 -0.550781 1.40625 -0.632812 1.40625 -0.75 C 1.40625 -0.925781 1.441406 -1.1875 1.515625 -1.53125 C 1.546875 -1.757812 1.570312 -1.9375 1.59375 -2.0625 C 1.625 -2.195312 1.644531 -2.296875 1.65625 -2.359375 C 2.175781 -4.804688 2.691406 -6.957031 3.203125 -8.8125 L 5.015625 -17.03125 C 5.015625 -17.0625 5.039062 -17.113281 5.09375 -17.1875 C 5.144531 -17.257812 5.207031 -17.300781 5.28125 -17.3125 L 5.40625 -17.3125 C 5.40625 -17.300781 5.429688 -17.296875 5.484375 -17.296875 C 5.691406 -17.296875 5.925781 -17.320312 6.1875 -17.375 C 6.445312 -17.425781 6.679688 -17.453125 6.890625 -17.453125 C 7.273438 -17.453125 7.628906 -17.425781 7.953125 -17.375 C 8.109375 -17.375 8.28125 -17.363281 8.46875 -17.34375 C 8.664062 -17.320312 8.867188 -17.3125 9.078125 -17.3125 C 9.140625 -17.3125 9.21875 -17.332031 9.3125 -17.375 L 10.375 -17.375 L 11 -17.390625 C 11.125 -17.410156 11.269531 -17.421875 11.4375 -17.421875 C 11.570312 -17.421875 11.640625 -17.429688 11.640625 -17.453125 L 14.046875 -17.453125 C 15.015625 -17.453125 15.65625 -17.429688 15.96875 -17.390625 C 16.019531 -17.390625 16.09375 -17.382812 16.1875 -17.375 C 16.28125 -17.375 16.335938 -17.351562 16.359375 -17.3125 C 16.472656 -17.3125 16.59375 -17.320312 16.71875 -17.34375 C 16.84375 -17.363281 16.957031 -17.375 17.0625 -17.375 C 17.300781 -17.425781 17.535156 -17.453125 17.765625 -17.453125 C 17.859375 -17.453125 17.957031 -17.425781 18.0625 -17.375 C 18.164062 -17.320312 18.28125 -17.296875 18.40625 -17.296875 L 18.53125 -17.3125 L 18.609375 -17.3125 C 18.660156 -17.28125 18.71875 -17.234375 18.78125 -17.171875 C 18.84375 -17.109375 18.875 -17.0625 18.875 -17.03125 L 20.703125 -8.8125 C 21.253906 -6.78125 21.753906 -4.628906 22.203125 -2.359375 C 22.203125 -2.253906 22.238281 -2.144531 22.3125 -2.03125 C 22.320312 -1.90625 22.34375 -1.738281 22.375 -1.53125 C 22.414062 -1.320312 22.4375 -1.148438 22.4375 -1.015625 C 22.457031 -0.941406 22.46875 -0.847656 22.46875 -0.734375 C 22.46875 -0.484375 22.414062 -0.28125 22.3125 -0.125 C 22.238281 -0.0195312 22.132812 0.03125 22 0.03125 L 21.65625 0.03125 C 21.394531 0.03125 21.195312 0.0195312 21.0625 0 L 19.21875 0 C 19.070312 0 19 -0.0078125 19 -0.03125 L 17.375 -0.03125 L 17.375 -0.078125 C 17.300781 -0.109375 17.210938 -0.125 17.109375 -0.125 C 17.109375 -0.125 17.101562 -0.117188 17.09375 -0.109375 C 17.082031 -0.109375 17.070312 -0.0976562 17.0625 -0.078125 C 17.0625 -0.046875 17.039062 -0.03125 17 -0.03125 L 16.71875 -0.03125 C 16.632812 -0.0625 16.460938 -0.078125 16.203125 -0.078125 C 15.679688 -0.109375 15.269531 -0.125 14.96875 -0.125 C 14.863281 -0.28125 14.753906 -0.59375 14.640625 -1.0625 C 14.535156 -1.53125 14.421875 -2.050781 14.296875 -2.625 C 14.265625 -2.90625 14.234375 -3.097656 14.203125 -3.203125 C 13.835938 -3.128906 13.359375 -3.09375 12.765625 -3.09375 L 11.203125 -3.09375 L 11.03125 -2.265625 C 10.800781 -1.117188 10.617188 -0.40625 10.484375 -0.125 C 10.410156 -0.125 10.320312 -0.109375 10.21875 -0.078125 C 10.1875 -0.0546875 10.15625 -0.0390625 10.125 -0.03125 C 10.101562 -0.03125 10.09375 -0.03125 10.09375 -0.03125 L 9.984375 -0.03125 C 9.878906 -0.03125 9.800781 -0.046875 9.75 -0.078125 C 9.71875 -0.109375 9.675781 -0.125 9.625 -0.125 L 8.453125 -0.078125 L 7.640625 -0.078125 C 7.578125 -0.046875 7.492188 -0.03125 7.390625 -0.03125 L 4.65625 -0.03125 C 4.46875 -0.0078125 4.078125 0 3.484375 0 L 2.8125 0 C 2.664062 0.0195312 2.460938 0.03125 2.203125 0.03125 Z M 13.90625 -6.34375 C 13.789062 -7.195312 13.734375 -7.625 13.734375 -7.625 C 13.679688 -7.863281 13.59375 -8.320312 13.46875 -9 C 13.4375 -9.164062 13.347656 -9.632812 13.203125 -10.40625 C 13.066406 -11.226562 13 -11.640625 13 -11.640625 C 12.945312 -11.992188 12.894531 -12.300781 12.84375 -12.5625 L 12.8125 -12.890625 C 12.757812 -12.984375 12.734375 -13.0625 12.734375 -13.125 L 12.71875 -13.28125 C 12.695312 -13.25 12.6875 -13.195312 12.6875 -13.125 C 12.6875 -13.0625 12.671875 -13.019531 12.640625 -13 L 12.640625 -12.890625 L 12.578125 -12.5625 C 12.566406 -12.4375 12.546875 -12.300781 12.515625 -12.15625 C 12.492188 -12.007812 12.460938 -11.847656 12.421875 -11.671875 L 12.296875 -10.953125 C 12.109375 -9.859375 11.992188 -9.222656 11.953125 -9.046875 C 11.941406 -8.859375 11.898438 -8.570312 11.828125 -8.1875 C 11.796875 -8.070312 11.757812 -7.890625 11.71875 -7.640625 L 11.515625 -6.453125 L 12.84375 -6.453125 L 13.03125 -6.5 L 13.078125 -6.5 C 13.285156 -6.5 13.441406 -6.484375 13.546875 -6.453125 C 13.617188 -6.453125 13.679688 -6.4375 13.734375 -6.40625 C 13.796875 -6.382812 13.851562 -6.363281 13.90625 -6.34375 Z M 13.90625 -6.34375 "/></g></g></g><g fill="#cbdcef" fill-opacity="1"><g transform="translate(187.486924, 217.611447)"><g><path d="M 15.46875 0.890625 C 15.394531 0.890625 15.332031 0.878906 15.28125 0.859375 C 15.019531 0.703125 14.804688 0.53125 14.640625 0.34375 C 14.585938 0.25 14.550781 0.203125 14.53125 0.203125 C 14.519531 0.171875 14.492188 0.15625 14.453125 0.15625 L 14.40625 0.125 C 14.332031 0.0625 14.296875 0.03125 14.296875 0.03125 L 12.09375 -3.25 C 11.988281 -3.476562 11.835938 -3.722656 11.640625 -3.984375 C 11.523438 -4.097656 11.425781 -4.226562 11.34375 -4.375 C 11.269531 -4.476562 11.195312 -4.53125 11.125 -4.53125 C 11.070312 -4.53125 11.03125 -4.503906 11 -4.453125 C 10.976562 -4.398438 10.960938 -4.328125 10.953125 -4.234375 C 10.898438 -3.765625 10.875 -3.132812 10.875 -2.34375 C 10.875 -1.582031 10.828125 -0.96875 10.734375 -0.5 C 10.679688 -0.269531 10.601562 -0.15625 10.5 -0.15625 L 10.34375 -0.15625 C 10.3125 -0.175781 10.28125 -0.1875 10.25 -0.1875 C 10.226562 -0.195312 10.21875 -0.203125 10.21875 -0.203125 C 9.613281 -0.148438 8.703125 -0.09375 7.484375 -0.03125 C 6.304688 0.0390625 5.40625 0.078125 4.78125 0.078125 C 4.613281 0.078125 4.476562 0.0625 4.375 0.03125 L 3.09375 0.03125 L 2.15625 -0.28125 L 2.078125 -0.5 C 2.078125 -0.507812 2.070312 -0.539062 2.0625 -0.59375 C 2.050781 -0.644531 2.046875 -0.71875 2.046875 -0.8125 C 2.046875 -0.914062 2.03125 -1.101562 2 -1.375 C 1.914062 -2.4375 1.878906 -2.851562 1.890625 -2.625 C 1.859375 -3.070312 1.800781 -3.851562 1.71875 -4.96875 L 1.640625 -5.921875 C 1.640625 -6.234375 1.628906 -6.507812 1.609375 -6.75 C 1.597656 -7 1.582031 -7.210938 1.5625 -7.390625 L 1.515625 -7.953125 C 1.460938 -8.660156 1.4375 -9.328125 1.4375 -9.953125 C 1.4375 -9.972656 1.4375 -10 1.4375 -10.03125 C 1.445312 -10.070312 1.453125 -10.144531 1.453125 -10.25 C 1.492188 -10.351562 1.515625 -10.515625 1.515625 -10.734375 L 1.53125 -11.203125 L 1.5625 -11.515625 C 1.5625 -11.878906 1.546875 -12.410156 1.515625 -13.109375 C 1.441406 -13.535156 1.40625 -14.085938 1.40625 -14.765625 C 1.40625 -15.734375 1.46875 -16.445312 1.59375 -16.90625 C 1.738281 -17.53125 1.992188 -17.84375 2.359375 -17.84375 C 4.316406 -17.84375 6.3125 -17.816406 8.34375 -17.765625 C 8.789062 -17.765625 9.46875 -17.742188 10.375 -17.703125 L 11.390625 -17.6875 C 12.773438 -17.644531 13.738281 -17.625 14.28125 -17.625 C 16.507812 -17.519531 18.195312 -16.957031 19.34375 -15.9375 C 19.863281 -15.5 20.25 -14.976562 20.5 -14.375 C 20.75 -13.769531 20.875 -13.117188 20.875 -12.421875 C 20.875 -11.628906 20.726562 -10.894531 20.4375 -10.21875 C 20.195312 -9.675781 19.847656 -9.179688 19.390625 -8.734375 C 18.960938 -8.304688 18.46875 -7.960938 17.90625 -7.703125 C 18.007812 -7.648438 18.148438 -7.535156 18.328125 -7.359375 C 18.398438 -7.273438 18.519531 -7.160156 18.6875 -7.015625 L 19.0625 -6.765625 C 19.113281 -6.671875 19.171875 -6.582031 19.234375 -6.5 C 19.304688 -6.425781 19.378906 -6.347656 19.453125 -6.265625 L 20.671875 -4.765625 C 21.222656 -4.046875 21.578125 -3.523438 21.734375 -3.203125 C 21.859375 -2.972656 21.921875 -2.796875 21.921875 -2.671875 C 21.921875 -2.503906 21.847656 -2.347656 21.703125 -2.203125 C 21.566406 -2.066406 21.363281 -1.894531 21.09375 -1.6875 C 20.882812 -1.53125 20.640625 -1.382812 20.359375 -1.25 C 20.097656 -1.113281 19.898438 -0.984375 19.765625 -0.859375 L 18.796875 -0.34375 C 18.453125 -0.144531 18.082031 0.0195312 17.6875 0.15625 C 17.664062 0.15625 17.640625 0.160156 17.609375 0.171875 C 17.585938 0.191406 17.550781 0.210938 17.5 0.234375 C 17.394531 0.285156 17.109375 0.378906 16.640625 0.515625 C 16.554688 0.566406 16.410156 0.613281 16.203125 0.65625 C 16.148438 0.6875 16.085938 0.707031 16.015625 0.71875 C 15.941406 0.738281 15.890625 0.75 15.859375 0.75 L 15.734375 0.75 C 15.710938 0.84375 15.675781 0.890625 15.625 0.890625 Z M 11.203125 -8.296875 C 11.742188 -8.296875 12.171875 -8.5625 12.484375 -9.09375 C 12.773438 -9.582031 12.9375 -10.140625 12.96875 -10.765625 C 13.007812 -11.128906 13.03125 -11.5625 13.03125 -12.0625 L 13.03125 -12.34375 C 13.03125 -12.75 12.957031 -13.164062 12.8125 -13.59375 C 12.675781 -14.15625 12.390625 -14.554688 11.953125 -14.796875 C 11.765625 -14.953125 11.515625 -15.03125 11.203125 -15.03125 C 11.117188 -15.03125 11.050781 -14.925781 11 -14.71875 C 10.84375 -14.332031 10.753906 -13.722656 10.734375 -12.890625 C 10.671875 -12.546875 10.640625 -12.140625 10.640625 -11.671875 L 10.609375 -10.890625 C 10.578125 -9.890625 10.5625 -9.054688 10.5625 -8.390625 C 10.5625 -8.378906 10.566406 -8.363281 10.578125 -8.34375 C 10.597656 -8.320312 10.617188 -8.3125 10.640625 -8.3125 L 10.8125 -8.296875 Z M 11.203125 -8.296875 "/></g></g></g><g fill="#cbdcef" fill-opacity="1"><g transform="translate(211.738189, 217.611447)"><g><path d="M 3.640625 0 C 3.554688 0 3.425781 -0.0078125 3.25 -0.03125 C 3.070312 -0.0625 2.863281 -0.0859375 2.625 -0.109375 L 2.078125 -0.234375 C 1.992188 -0.253906 1.925781 -0.273438 1.875 -0.296875 C 1.832031 -0.328125 1.820312 -0.347656 1.84375 -0.359375 C 1.84375 -0.816406 1.816406 -1.414062 1.765625 -2.15625 C 1.765625 -2.414062 1.753906 -2.644531 1.734375 -2.84375 C 1.722656 -3.039062 1.707031 -3.210938 1.6875 -3.359375 L 1.640625 -4.46875 C 1.640625 -4.757812 1.625 -5.132812 1.59375 -5.59375 L 1.5625 -6.390625 C 1.5625 -7.054688 1.550781 -7.570312 1.53125 -7.9375 C 1.519531 -8.289062 1.515625 -9.050781 1.515625 -10.21875 C 1.515625 -11.3125 1.519531 -12.4375 1.53125 -13.59375 C 1.550781 -14.757812 1.601562 -15.863281 1.6875 -16.90625 C 1.6875 -17.09375 1.894531 -17.25 2.3125 -17.375 C 2.570312 -17.40625 3.003906 -17.421875 3.609375 -17.421875 C 5.015625 -17.421875 6.046875 -17.445312 6.703125 -17.5 C 8.753906 -17.53125 10.300781 -17.546875 11.34375 -17.546875 L 12.484375 -17.546875 C 13.898438 -17.515625 14.988281 -17.460938 15.75 -17.390625 C 16.03125 -17.390625 16.234375 -17.0625 16.359375 -16.40625 C 16.410156 -16.28125 16.46875 -15.96875 16.53125 -15.46875 C 16.582031 -15.207031 16.65625 -14.890625 16.75 -14.515625 C 16.757812 -14.410156 16.757812 -14.304688 16.75 -14.203125 C 16.75 -14.109375 16.75 -14.054688 16.75 -14.046875 C 16.726562 -13.867188 16.628906 -13.78125 16.453125 -13.78125 C 16.390625 -13.800781 16.285156 -13.8125 16.140625 -13.8125 C 15.410156 -13.8125 14.519531 -13.75 13.46875 -13.625 L 12.09375 -13.515625 C 11.519531 -13.453125 11.066406 -13.410156 10.734375 -13.390625 C 10.679688 -13.390625 10.613281 -13.285156 10.53125 -13.078125 C 10.457031 -12.847656 10.378906 -12.328125 10.296875 -11.515625 L 10.25 -10.875 C 10.25 -10.644531 10.273438 -10.5 10.328125 -10.4375 C 10.378906 -10.375 10.488281 -10.34375 10.65625 -10.34375 L 12.96875 -10.34375 C 13.644531 -10.34375 14.414062 -10.300781 15.28125 -10.21875 L 15.59375 -10.21875 C 15.820312 -10.164062 15.960938 -10.078125 16.015625 -9.953125 C 16.085938 -9.847656 16.128906 -9.738281 16.140625 -9.625 L 16.25 -7.3125 L 16.25 -7.234375 C 16.25 -6.929688 15.9375 -6.753906 15.3125 -6.703125 C 14.945312 -6.617188 14.253906 -6.578125 13.234375 -6.578125 C 12.347656 -6.578125 11.773438 -6.585938 11.515625 -6.609375 C 11.015625 -6.609375 10.710938 -6.597656 10.609375 -6.578125 C 10.421875 -6.523438 10.300781 -6.425781 10.25 -6.28125 C 10.195312 -6.132812 10.171875 -5.882812 10.171875 -5.53125 C 10.171875 -5.3125 10.148438 -4.992188 10.109375 -4.578125 C 10.097656 -4.367188 10.09375 -4.039062 10.09375 -3.59375 C 11.21875 -3.59375 12.046875 -3.609375 12.578125 -3.640625 C 13.171875 -3.691406 14.003906 -3.71875 15.078125 -3.71875 C 15.148438 -3.71875 15.21875 -3.65625 15.28125 -3.53125 C 15.375 -3.363281 15.515625 -2.972656 15.703125 -2.359375 C 15.804688 -2.015625 15.910156 -1.582031 16.015625 -1.0625 C 16.046875 -0.945312 16.0625 -0.816406 16.0625 -0.671875 C 16.0625 -0.304688 15.890625 -0.125 15.546875 -0.125 C 15.097656 -0.125 14.492188 -0.109375 13.734375 -0.078125 C 13.328125 -0.046875 12.703125 -0.03125 11.859375 -0.03125 C 10.035156 -0.03125 8.664062 -0.0195312 7.75 0 Z M 3.640625 0 "/></g></g></g><g fill="#cbdcef" fill-opacity="1"><g transform="translate(231.310846, 217.611447)"><g/></g></g><g fill="#cbdcef" fill-opacity="1"><g transform="translate(239.57689, 217.611447)"><g><path d="M 11.90625 2.3125 C 11.90625 2.3125 11.890625 2.3125 11.859375 2.3125 C 11.835938 2.3125 11.816406 2.320312 11.796875 2.34375 L 11.71875 2.359375 C 11.664062 2.359375 11.640625 2.34375 11.640625 2.3125 C 11.578125 2.28125 11.535156 2.226562 11.515625 2.15625 C 10.910156 2.050781 10.519531 1.960938 10.34375 1.890625 L 9.4375 1.640625 L 9.3125 1.640625 C 9.21875 1.640625 9.144531 1.625 9.09375 1.59375 C 8.9375 1.59375 8.804688 1.570312 8.703125 1.53125 C 8.566406 1.519531 8.34375 1.460938 8.03125 1.359375 C 7.71875 1.253906 7.492188 1.175781 7.359375 1.125 C 7.078125 1.03125 6.675781 0.878906 6.15625 0.671875 C 5.914062 0.566406 5.734375 0.5 5.609375 0.46875 L 5.015625 0.109375 C 4.878906 0.00390625 4.8125 -0.0976562 4.8125 -0.203125 C 4.8125 -0.535156 4.890625 -0.882812 5.046875 -1.25 C 5.097656 -1.375 5.171875 -1.519531 5.265625 -1.6875 C 5.359375 -1.863281 5.445312 -2.0625 5.53125 -2.28125 C 5.570312 -2.382812 5.671875 -2.539062 5.828125 -2.75 C 6.242188 -3.445312 6.46875 -3.832031 6.5 -3.90625 C 6.570312 -4.09375 6.609375 -4.265625 6.609375 -4.421875 C 6.609375 -4.679688 6.46875 -4.945312 6.1875 -5.21875 C 5.925781 -5.476562 5.796875 -5.734375 5.796875 -5.984375 C 5.710938 -5.984375 5.671875 -5.972656 5.671875 -5.953125 L 5.59375 -5.953125 C 5.550781 -5.984375 5.53125 -6.019531 5.53125 -6.0625 C 4.976562 -6.75 4.414062 -7.585938 3.84375 -8.578125 C 3.113281 -9.722656 2.523438 -10.765625 2.078125 -11.703125 C 1.941406 -11.910156 1.78125 -12.28125 1.59375 -12.8125 C 1.363281 -13.28125 1.171875 -13.757812 1.015625 -14.25 C 0.828125 -14.78125 0.734375 -15.125 0.734375 -15.28125 C 0.734375 -15.457031 0.921875 -15.6875 1.296875 -15.96875 C 1.453125 -16.070312 1.632812 -16.175781 1.84375 -16.28125 C 2.050781 -16.382812 2.207031 -16.460938 2.3125 -16.515625 C 2.394531 -16.523438 2.757812 -16.617188 3.40625 -16.796875 L 3.765625 -16.921875 C 3.835938 -16.972656 3.914062 -17 4 -17 C 4.101562 -17 4.269531 -17.035156 4.5 -17.109375 C 5 -17.210938 5.289062 -17.28125 5.375 -17.3125 L 6.3125 -17.53125 C 6.832031 -17.695312 7.140625 -17.789062 7.234375 -17.8125 L 7.28125 -17.84375 L 7.40625 -17.84375 C 7.769531 -17.84375 8.015625 -17.753906 8.140625 -17.578125 C 8.242188 -17.472656 8.414062 -17.226562 8.65625 -16.84375 C 8.6875 -16.738281 8.75 -16.617188 8.84375 -16.484375 C 8.945312 -16.347656 9.015625 -16.257812 9.046875 -16.21875 L 9.25 -15.9375 L 9.4375 -15.734375 C 9.507812 -15.640625 9.578125 -15.53125 9.640625 -15.40625 C 9.710938 -15.289062 9.789062 -15.164062 9.875 -15.03125 C 10.332031 -14.226562 10.679688 -13.664062 10.921875 -13.34375 C 11.078125 -13.113281 11.207031 -13 11.3125 -13 C 11.363281 -13 11.445312 -13.09375 11.5625 -13.28125 C 11.71875 -13.53125 12.003906 -14.085938 12.421875 -14.953125 C 12.648438 -15.503906 12.921875 -16.132812 13.234375 -16.84375 C 13.390625 -17.15625 13.476562 -17.347656 13.5 -17.421875 C 13.5625 -17.734375 13.640625 -17.929688 13.734375 -18.015625 C 13.816406 -18.148438 13.972656 -18.21875 14.203125 -18.21875 C 14.753906 -18.21875 15.476562 -18.109375 16.375 -17.890625 C 17.257812 -17.628906 18.109375 -17.289062 18.921875 -16.875 C 19.753906 -16.425781 20.320312 -16.007812 20.625 -15.625 C 20.625 -15.15625 20.507812 -14.722656 20.28125 -14.328125 L 17.890625 -9.046875 L 15.546875 -3.75 L 15.4375 -3.71875 C 15.425781 -3.71875 15.398438 -3.703125 15.359375 -3.671875 C 14.222656 -1.429688 13.175781 0.578125 12.21875 2.359375 C 12.1875 2.429688 12.082031 2.46875 11.90625 2.46875 Z M 11.90625 2.3125 "/></g></g></g><g fill="#cbdcef" fill-opacity="1"><g transform="translate(262.424572, 217.611447)"><g><path d="M 11.390625 0.625 C 9.328125 0.625 7.695312 0.457031 6.5 0.125 C 4.832031 -0.300781 3.566406 -1.101562 2.703125 -2.28125 C 1.703125 -3.6875 1.203125 -5.640625 1.203125 -8.140625 C 1.203125 -9.921875 1.398438 -11.4375 1.796875 -12.6875 C 2.191406 -13.9375 2.804688 -14.957031 3.640625 -15.75 C 4.472656 -16.550781 5.539062 -17.132812 6.84375 -17.5 C 8.15625 -17.875 9.753906 -18.0625 11.640625 -18.0625 C 13.117188 -18.0625 14.507812 -17.835938 15.8125 -17.390625 C 17.40625 -16.816406 18.644531 -15.941406 19.53125 -14.765625 C 20.613281 -13.359375 21.15625 -11.515625 21.15625 -9.234375 C 21.15625 -6.554688 20.757812 -4.472656 19.96875 -2.984375 C 19.164062 -1.617188 18.015625 -0.648438 16.515625 -0.078125 C 15.273438 0.390625 13.566406 0.625 11.390625 0.625 Z M 11.1875 -1.890625 C 11.382812 -1.890625 11.546875 -2.019531 11.671875 -2.28125 C 11.929688 -2.84375 12.113281 -3.71875 12.21875 -4.90625 C 12.320312 -6 12.375 -7.035156 12.375 -8.015625 L 12.375 -9.703125 C 12.375 -10.460938 12.320312 -11.390625 12.21875 -12.484375 C 12.113281 -13.660156 11.929688 -14.550781 11.671875 -15.15625 C 11.535156 -15.445312 11.375 -15.59375 11.1875 -15.59375 C 10.800781 -15.59375 10.519531 -15.234375 10.34375 -14.515625 C 10.175781 -13.503906 10.09375 -12.59375 10.09375 -11.78125 C 10.039062 -11.082031 10.015625 -10 10.015625 -8.53125 C 10.015625 -7.539062 10.039062 -6.722656 10.09375 -6.078125 C 10.09375 -5.265625 10.175781 -4.320312 10.34375 -3.25 C 10.519531 -2.34375 10.800781 -1.890625 11.1875 -1.890625 Z M 11.1875 -1.890625 "/></g></g></g><g fill="#cbdcef" fill-opacity="1"><g transform="translate(286.311937, 217.611447)"><g><path d="M 6.890625 0.59375 C 5.242188 0.59375 3.992188 0.210938 3.140625 -0.546875 C 2.429688 -1.148438 1.945312 -2.117188 1.6875 -3.453125 C 1.519531 -4.335938 1.4375 -5.664062 1.4375 -7.4375 C 1.4375 -8.71875 1.503906 -10.117188 1.640625 -11.640625 C 1.640625 -11.890625 1.65625 -12.238281 1.6875 -12.6875 C 1.707031 -13.050781 1.722656 -13.566406 1.734375 -14.234375 C 1.753906 -14.898438 1.765625 -15.484375 1.765625 -15.984375 C 1.765625 -16.242188 1.75 -16.425781 1.71875 -16.53125 C 1.675781 -16.78125 1.65625 -16.972656 1.65625 -17.109375 C 1.65625 -17.390625 1.953125 -17.53125 2.546875 -17.53125 L 4.109375 -17.53125 C 5.210938 -17.5625 6.28125 -17.523438 7.3125 -17.421875 C 8.019531 -17.347656 8.5625 -17.269531 8.9375 -17.1875 C 9.40625 -17.0625 9.71875 -16.890625 9.875 -16.671875 C 10.019531 -16.410156 10.09375 -15.957031 10.09375 -15.3125 C 10.09375 -14.53125 10.082031 -13.8125 10.0625 -13.15625 C 10.039062 -12.507812 10.023438 -11.9375 10.015625 -11.4375 C 9.992188 -11.320312 9.984375 -11.132812 9.984375 -10.875 C 9.984375 -10.519531 9.96875 -9.925781 9.9375 -9.09375 C 9.894531 -7.570312 9.875 -6.300781 9.875 -5.28125 C 9.875 -4.632812 9.898438 -4.164062 9.953125 -3.875 C 10.003906 -3.59375 10.144531 -3.453125 10.375 -3.453125 C 10.84375 -3.453125 11.351562 -3.566406 11.90625 -3.796875 C 12.25 -3.972656 12.492188 -4.101562 12.640625 -4.1875 L 12.640625 -14.640625 C 12.585938 -15.035156 12.5625 -15.425781 12.5625 -15.8125 C 12.519531 -15.914062 12.5 -16.0625 12.5 -16.25 L 12.5 -16.484375 C 12.5 -16.796875 12.5625 -17.015625 12.6875 -17.140625 C 12.8125 -17.242188 13.097656 -17.296875 13.546875 -17.296875 C 14.046875 -17.296875 14.695312 -17.320312 15.5 -17.375 C 15.769531 -17.375 16.148438 -17.390625 16.640625 -17.421875 C 16.984375 -17.421875 17.234375 -17.445312 17.390625 -17.5 C 17.492188 -17.5 17.617188 -17.484375 17.765625 -17.453125 C 17.960938 -17.453125 18.132812 -17.441406 18.28125 -17.421875 L 19.0625 -17.390625 C 19.4375 -17.378906 19.910156 -17.3125 20.484375 -17.1875 L 21.21875 -16.984375 C 21.375 -16.929688 21.472656 -16.867188 21.515625 -16.796875 C 21.554688 -16.722656 21.578125 -16.632812 21.578125 -16.53125 C 21.578125 -13.96875 21.523438 -11.394531 21.421875 -8.8125 C 21.316406 -5.414062 21.265625 -2.851562 21.265625 -1.125 C 21.265625 -0.425781 20.9375 -0.078125 20.28125 -0.078125 L 18.953125 -0.078125 C 18.609375 -0.046875 17.976562 -0.0078125 17.0625 0.03125 C 16.539062 0.0625 16.128906 0.078125 15.828125 0.078125 L 14.640625 0.125 C 14.171875 0.125 13.8125 0.046875 13.5625 -0.109375 C 13.320312 -0.265625 13.160156 -0.53125 13.078125 -0.90625 C 12.140625 -0.4375 11.148438 -0.0664062 10.109375 0.203125 C 9.066406 0.460938 7.992188 0.59375 6.890625 0.59375 Z M 6.890625 0.59375 "/></g></g></g></svg>